<svg version="1.1" xmlns="http://www.w3.org/2000/svg" x="0" y="0" width="80.3" height="95.6" viewBox="0 0 80.3 95.6" xml:space="preserve"><style type="text/css">.st0{fill:#eb2533}.st1{fill:#fff}</style><path class="st0" d="M40.2 92.4c2.5-2.5 8.1-6.7 13.5-8.4 6.2-1.9 22.1-4.7 25.8-21 2.9-12.8-2.6-27.2-3.2-33.7-.6-5.7 1.2-18.6 1.4-20.6.4-2.6-2.1-3.6-3.8-3-2.7 1-8.6 2.9-15.3 3-7.2.1-16.1-5.2-18.4-8.7C37.9 3.5 29 8.8 21.8 8.7c-6.7-.1-12.6-2-15.3-3-1.6-.6-4.1.4-3.8 3 .3 2 2 14.9 1.4 20.6C3.5 35.8-2.1 50.1.9 63c3.7 16.3 19.7 19.2 25.8 21 5.4 1.7 11.1 5.9 13.5 8.4z"/><path class="st1" d="M40.2 89.8l-.3-.4c-3.2-3.3-9.7-6.6-14-7.7-12.4-3.3-19.8-8.9-22.5-17.3-2.8-8.8-.7-18.4 1-26.2.6-2.9 1.2-5.6 1.5-8 .7-5.9-.7-17.5-1-19s-.4-2.5.1-3c.2-.3.5-.4.9-.4s.9.1 1.8.4c2.2.8 9.1 2.5 15.3 2.3 5.8-.2 12.6-3.7 16.9-7.2l.3-.2.3.2c4.3 3.4 11.1 7 16.9 7.2 6.1.2 13-1.5 15.3-2.3.8-.3 1.4-.4 1.8-.4s.7.1.9.4c.4.5.4 1.5.1 3s-1.7 13.1-1 19c.3 2.4.9 5.1 1.5 8 1.7 7.8 3.9 17.4 1 26.2-2.7 8.4-10.1 14.1-22.5 17.3-4.2 1.1-10.8 4.4-14 7.7l-.3.4zM6 8.8c-.1 0-.2 0-.2.1-.2.3 0 1.7.1 2.2.3 1.5 1.7 13.3 1 19.3-.3 2.4-.9 5.2-1.6 8.1-1.7 7.7-3.8 17.2-1.1 25.7 2.6 8.1 9.8 13.5 21.9 16.7 4.2 1.1 10.7 4.3 14.1 7.6 3.4-3.3 9.8-6.5 14.1-7.6 12.1-3.2 19.2-8.6 21.9-16.7 2.8-8.5.7-18.1-1.1-25.7-.6-2.9-1.3-5.7-1.6-8.1-.7-6 .7-17.7 1-19.3.1-.5.4-1.9.1-2.2 0 0-.1-.1-.2-.1-.4 0-1 .2-1.5.4-2.7 1-9.5 2.6-15.6 2.4-3.9-.1-10.7-2.1-17.1-7.1-6.4 5.1-13.2 7-17.1 7.1-6.1.2-12.9-1.4-15.6-2.4-.4-.2-1.1-.4-1.5-.4z"/><path class="st1" d="M42.4 12.3c.1.9.3 1.8.2 2.7-.3-.7-.9-1.4-1.7-1.4-.9 0-1.7.7-2.2 1.5-.2 1.3-.1 2.6.1 3.9.6-.1 1-.7 1.6-1 1.3-.9 3.6-.2 4.2-2.1l.1-.1c.2.5-.1 1.2-.3 1.7-1.3 2.3-4.6.4-5.7 2.8.1 1.6-.2 3.5.2 5 .3.3.7.2 1 .1 2.1-.6 3.4-2.7 3.9-4.7h.1c-.1 1.2-.1 2.5-.3 3.7-2.4 1.5-4.8 2.9-7.3 4.1 1.2-2.2.4-5.1.6-7.7-.1-1.5-.1-2.8-.1-4.4 0-.3-.3-.6-.6-.7s-.6-.1-.8-.2c.2-.3.6-.6 1-.7 1.8-1.2 3.8-2.1 5.6-3.1.4-.1.2.4.4.6zM69.4 16.5c.6 1.7 0 3.6-.1 5.4-.5 3.9-.7 8.2.5 11.9.1.3-.3.3-.4.2-.9-.5-1.3-1.6-1.7-2.5-.9-1.8-1.5-3.8-2.6-5.5l-.1.2.1 8c.1.3.4.4.6.6-.6.7-1.5 1-2.3 1.4 0-.4.3-.7.3-1.2 0-4.2 0-8.6-.2-12.6-.2-.6-.9-.7-1.4-.9.7-.6 1.5-1 2.3-1.4.3-.1.6.2.7.4.8 1.8 1.5 3.6 2.4 5.3.1 0 .1 0 .2-.1 0-2.7.5-5.4.3-8.2-.1-.6-1.2-.7-.8-1.4.4-.3.8-.7 1.4-.6.3.2.5.7.8 1zM33.5 16.6c-.1.4-.3.8-.4 1.2l.1 10.9c.1.3 0 .6.3.9l.5.3c-.7.6-1.8 1.2-2.8 1.6 0-.1 0-.3.1-.3l.2-.8-.1-5.7c-.4-.4-.8.1-1.2.3-.7.5-1.6.8-2.1 1.4 0 1.8-.2 3.8.1 5.6.1.4.4.5.8.6h.3c-1 .8-2.2 1.5-3.4 2 .2-.5.4-1.1.5-1.8l-.2-10.6c0-.5-.6-.7-.8-1 .9-.7 2-1.3 3.1-1.8-.8 1.3-.2 3.4-.3 5 0 .1.1.2.1.2 1.1-.3 2-1.1 3-1.6l.2-.3v-3.8c-.1-.3-.3-.6-.6-.6h-.3c0-.4.4-.3.6-.6.7-.3 1.4-1 2.3-1.1zM23.6 20.8c.3 1.6.1 3.5.9 4.9-1.3-.7-1-2.2-2.2-3-.4-.1-.6.2-.7.4-.1 4.4.2 8.4.3 12.6.1.3.4.4.6.5h.4c-1.2.9-2.6 1.5-3.9 2.2 1.2-1.3.6-3.4.7-5l-.1-8.8c-.1-.2 0-.5-.2-.7-1.1.3-1.1 1.6-1.6 2.5-.3 1.3-.3 2.6-1.4 3.5h-.1c1-1.8.1-4.1.7-6 2.1-1.2 4.3-2.6 6.5-3.7l.1.6zM61.4 25.1c1.6 3.8 1.4 8.6-.3 12.3-.6.9-1.3 2.1-2.5 2.2-.9.1-1.7-.2-2.4-.8-1.8-2.7-2-6.4-1.5-9.6.5-2.2 1.3-5.2 4.1-5.6 1.2-.2 2 .5 2.6 1.5zm-2.7-.2c-1 .3-1.3 1.4-1.5 2.4-.5 3.1-.8 6.8.1 9.7.3.5.6 1.5 1.4 1.4 1-.3 1.1-1.4 1.4-2.2.6-3.2.7-6.9.1-10.1-.4-.6-.8-1.2-1.5-1.2zM54 26.2c-.1.5-.4 1.1-.5 1.7v6.4c.1 2.2 0 4.6.2 6.7.2.3.3.4.6.6l-.1.1c-1 .7-2 1.3-3 1.7.5-.8.6-2 .6-3.2l-.1-8.7-.2-2.9c-.1-.3-.4-.5-.6-.7.8-.7 1.8-1 2.6-1.6.2.1.3-.1.5-.1zM49.9 29c.3 1.6.1 3.3.3 4.9-.7-.9-.4-2.3-1.6-2.9-.4-.1-.7.2-.9.5l-.1.4V40l.1 4.3c.1.4.5.6.8.8-.8.7-1.8 1.3-2.9 1.6l.3-1.3v-7l-.1-5.7c-.2-.3-.5-.3-.7 0-1 1-.8 2.6-1.5 3.8h-.1c.1-1.2 0-2.6 0-3.8l.1-.3c2-1 3.9-2.3 5.9-3.4.2-.3.4-.2.4 0zM37.9 35.7c-.5.9-.5 1.9-.7 2.9l-.5 2.6-1.3 7.4c-.7 1.9-.3 4.3-1.8 5.7 0-1.3-.4-2.4-.6-3.5l-2-7.7c-.2-1-.5-2.2-1.6-2.5 1.1-.6 2.1-1.5 3.4-1.9-.5.6-.3 1.5-.3 2.2.4 2.1 1 4.2 1.5 6.3.1 0 .2.1.2.1.5-1.8.7-3.8 1-5.6.1-1.2.7-2.6.1-3.8-.1-.2-.3-.3-.5-.3.9-.7 1.9-1.3 2.9-1.8l.2-.1zM67.9 41.4c.3.6.3 1.5 0 2.2-1 3.1-2.3 6-3.4 9 0 1.5-.1 3.3.1 4.9 0 .3.4.5.6.7-1 .8-2.2 1.3-3.2 2 .2-.6.6-1.2.6-1.9 0-1.8 0-3.7-.2-5.4-.9-1.9-1.8-3.8-2.9-5.7l-.7-.5c1-.7 2-1.4 3.2-1.8-.2.7-.6 1.8-.1 2.5.6 1.1.9 2.2 1.6 3.3.3.1.3-.3.5-.5.7-2.4 2-4.4 2.3-6.9 0-.9-.4-1.7-1.2-2-.1-.1 0-.3.1-.4.6-.4 1.5-.4 2.1 0 .4-.1.5.3.6.5zM27.3 45c0 3.4 0 6.8.2 10.3.1.3.1.6.4.7.4.1.6-.1.9-.3 1.3-1.3.6-3.6 2.1-4.8h.3c-.4 1.1-.5 2.4-.4 3.7-.1.4 0 .8-.1 1.2-1.6 1.1-3.4 2-5 3l-.1-.1.1-1.7-.1-8.7-.1-3.7c-.2-.6-.8-.9-1.3-.9 1.2-.7 2.4-1.6 3.7-2.1-.7.9-.5 2.2-.6 3.4zM57.2 47.6c0 .6-.3 1.2-.3 1.8v5l.2 7.5c.1.3.4.6.7.8-.8.6-1.7 1.1-2.6 1.5.3-.8.1-1.6.1-2.5l-.2-6.8c-.1-.1-.1 0-.2 0-.7 1.8-1.2 3.7-1.8 5.5-.4-.1-.6-.6-.7-.9-.6-.9-.9-1.8-1.6-2.7-.2 0-.3 0-.3.2.1 3-.1 5.7.2 8.7.2.3.5.4.7.7-.8.7-1.9 1.2-2.8 1.6.2-.6.5-1.3.5-2.1l-.1-6.3-.2-5.4c-.1-.5-.7-.8-1.2-1 .7-.5 1.4-1.2 2.3-1.3.9 1.5 1.7 2.9 2.6 4.4.3.1.3-.3.4-.4.6-2.4 1.3-4.7 2.1-7.1.7-.5 1.4-.9 2.2-1.2zM15.4 49.3c-1 1.4-.8 3.7-.3 5.2-.6 0-1-.6-1.4-1-.2 0-.7.1-.8-.1.3-.4.4-.8.4-1.2-.1-.6-.3-1.2-.9-1.5-.9-.4-2-.3-2.8.2-.6.6-1.1 1.4-.7 2.3 1.2 2.7 4.6 3.5 6 6.2.8 2 .6 4.6-.7 6.3-1.2 1.3-2.8 2.2-4.8 1.8-1.2-.2-2.3-1.2-2.7-2.4-.3-1.2.1-2.3 1-2.9.6-.4 1.6-.4 2.2 0 .3.2.4.5.5.9-.2.3-.5 0-.7.1-.3.2-.7.4-.8.8 0 .5-.1.9.2 1.2.5.7 1.3.9 2.1.7 1.1-.3 2.2-1.4 2.4-2.6.5-4.5-5.4-5.2-6.3-9-.4-1.8.2-3.5 1.6-4.5 1.4-.9 3.3-.9 4.8-.2.5-.4 1.2-.7 1.8-.6l-.1.3zM21.3 44.4c-.4.4-.4 1-.4 1.5 1.2 4 2.2 8.1 3.3 12.2.1.4.6.7.6 1.2-1 .6-2 1.2-3.1 1.6.8-1.2.3-2.5-.1-3.8-.2-.7-.5-.6-.8-.4-.5.2-1.1.6-1.4.7-.4.2-.5.8-.6 1.2-.2.8-1 2.9.3 3.5.2 0 .3.1.4 0-1 1-2.6 1.6-3.8 2.3.1-.6.5-1 .7-1.5 1.1-5.3 1.9-10.8 2.9-16.2.6-.8.9-2 2-2.3zm-.8 5.9l-.3.1c-.3 1.7-.8 3.8-.8 5.5.6-.3 1.3-.5 1.8-1.1l-.7-4.5z"/><path class="st1" d="M47.1 57.7c.8 1.7.3 3.8-.7 5.3-.4.8-1.8 1-1.5 2.1.6 2.3 1.2 4.7 3.3 6.2.5.3 1.2.3 1.8.2-.1.5-.7.8-1.2.9-2.6.1-4-2.7-5-4.6-.3-.9-.7-1.9-1-2.8l-.2-.2-.2.2c0 1.9.1 3.9 0 5.8.1.4.6.3.6.6-.8.6-1.7 1.1-2.7 1.5.4-1.7-.1-3.5.1-5.3-.1-2.9-.1-6-.2-9-.1-.3-.4-.5-.7-.6h-.4c.5-.6 1.3-1 2.1-1.5 1.3-.7 3.2-1.2 4.6-.3.5.4 1 1 1.3 1.5zm-3.7-.5c-.4 0-.9.3-1 .7-.2 1.9 0 3.9 0 5.8.1.3.4.3.6.3.7 0 1.3-.6 1.7-1.1.6-1.6 1-3.8 0-5.3-.3-.3-.8-.4-1.3-.4zM37 66.1l1.6 6.9c0 .3.4.6.6.7-.8.7-1.7 1.1-2.5 1.4.4-1.3-.2-2.6-.5-3.8-.1-.4-.6-.2-.8 0-1 .4-2 .9-2.8 1.6-.2 1.3-.6 2.7-.5 4 .2.3.5.5.8.4v.2c-1.2.8-2.3 1.5-3.5 2 .1-.4.5-.7.7-1.2.9-2.3 1.2-4.9 1.6-7.3.6-3.5 1.4-6.9 1.9-10.3.4-1 .7-2.1 1.6-2.8.3 2.8 1.2 5.4 1.8 8.2zm-2.7-2l-.3.7c-.3 2-.8 4-.9 6 .9-.1 1.7-.7 2.5-1.2.1-.3.1-.4 0-.7-.5-1.6-.7-3.3-1.3-4.8z"/><path class="st0" d="M43.7 92.7c0-1.6 1.3-2.8 2.9-2.8 1.6 0 2.9 1.2 2.9 2.8 0 1.7-1.3 2.9-2.9 2.9-1.5 0-2.9-1.2-2.9-2.9zm2.9 2.4c1.3 0 2.3-1 2.3-2.4 0-1.3-1-2.4-2.3-2.4s-2.3 1-2.3 2.4 1 2.4 2.3 2.4zm-.6-.7h-.5v-3.3h1.3c.8 0 1.2.3 1.2.9 0 .6-.4.8-.9.9l.9 1.4h-.6l-.9-1.4h-.6l.1 1.5zm.6-1.9c.4 0 .8 0 .8-.5 0-.4-.4-.5-.7-.5H46v1h.6z"/><path class="st1" d="M42.7 40.1c.6 2.1.9 4.4 1.6 6.5.1.3.6.4.6.7-.9.7-1.8 1.2-2.8 1.6.1-.6.3-1.5.2-2.3l-.3-1.5c-.1-.3-.4-.1-.6-.1-.6.6-1.6.7-2 1.5 0 1.1-.6 2-.4 3.2.2.4.7.4 1.2.4-1.3.7-2.4 1.6-3.8 2.2 1.5-3.4 1.6-7.3 2.5-10.9.8-2.9.7-6.2 2.2-8.8l.2-.1c-.2 2.6 1 5 1.4 7.6zm-1.8-1.4l-.3.1c-.3 1.7-.8 3.8-.8 5.5.6-.3 1.3-.5 1.8-1.1l-.7-4.5z"/></svg>