<?xml version="1.0" encoding="utf-8"?>
<!-- Generator: Adobe Illustrator 19.1.0, SVG Export Plug-In . SVG Version: 6.00 Build 0)  -->
<svg version="1.1" id="Layer_1" xmlns="http://www.w3.org/2000/svg" xmlns:xlink="http://www.w3.org/1999/xlink" x="0px" y="0px"
	 viewBox="0 0 500 500" style="enable-background:new 0 0 500 500;" xml:space="preserve">
<style type="text/css">
	.st0{enable-background:new    ;}
	.st1{fill:#EE3425;}
	.st2{fill:#FFFFFF;}
</style>
<g id="Shape_1_copy_1_" class="st0">
	<g id="Shape_1_copy">
		<g>
			<rect x="-32" y="-32" class="st1" width="564" height="564"/>
		</g>
	</g>
</g>
<g id="Shape_1_copy_2_1_" class="st0">
	<g id="Shape_1_copy_2">
		<g>
			<polygon class="st2" points="402.3,303.8 402.3,364.3 353.3,364.3 353.3,303.8 304.2,303.8 304.2,364.3 256.2,364.3 256.2,210.8 
				152.4,149.1 49.2,211 49.2,451 98.3,451 98.3,238.9 152.4,206.3 207.2,239 207.2,364.3 160.4,364.3 160.4,400 207.2,400 
				207.2,451.2 256.2,451.2 256.2,400 304.2,400 304.2,451.2 353.3,451.2 353.3,400 402.3,400 402.3,451.2 451.4,451.2 451.4,303.8 
							"/>
		</g>
	</g>
</g>
</svg>
