<?xml version="1.0" encoding="utf-8"?>
<!-- Generator: Adobe Illustrator 21.0.2, SVG Export Plug-In . SVG Version: 6.00 Build 0)  -->
<svg version="1.1" id="Layer_1" xmlns="http://www.w3.org/2000/svg" xmlns:xlink="http://www.w3.org/1999/xlink" x="0px" y="0px"
	 viewBox="0 0 186.1 141.7" style="enable-background:new 0 0 186.1 141.7;" xml:space="preserve">
<style type="text/css">
	.st0{fill:#0A71B9;}
	.st1{fill:#FFFFFF;}
</style>
<g>
	<path class="st0" d="M184.2,132.6c0,4-2.7,7.2-6.1,7.2H7c-3.4,0-6.1-3.2-6.1-7.2V9.3c0-4,2.7-7.2,6.1-7.2h171.1
		c3.4,0,6.1,3.2,6.1,7.2V132.6z"/>
	<path class="st1" d="M24.4,78.1h1.5c0.8,0,3.5,0,3.5-2.9c0-2.9-2.8-2.9-3.8-2.9h-1.1V78.1z M24.4,68.6h1.1c0.6,0,1.3,0,1.9-0.3
		c0.4-0.3,1.3-0.9,1.3-2.3c0-0.7-0.3-1.4-0.8-1.9c-0.7-0.7-1.5-0.7-2.4-0.7h-1.1V68.6z M16.6,59.8h12c0.9,0,3,0,4.7,1.2
		c1.5,1,2.4,2.7,2.4,4.3c0,2.9-2.1,4-2.9,4.4c3.6,1.3,4.3,4,4.3,5.8c0,3.1-2,4.6-2.4,4.9c-1.6,1.1-3.2,1.4-6.4,1.4H16.6V59.8z"/>
	<path class="st1" d="M61.3,70.7c0-2.3-1-4.7-3.8-4.7c-2.7,0-3.8,2.4-3.8,4.7c0,2.4,1.1,4.7,3.8,4.7S61.3,73.1,61.3,70.7 M45.9,70.7
		c0-5.2,3.6-11.2,11.6-11.2c7.4,0,11.6,5.3,11.6,11.2c0,5.3-3.6,11.2-11.6,11.2C50.1,81.9,45.9,76.6,45.9,70.7"/>
	<path class="st1" d="M102.1,59.8v10.9c0,2.5-0.3,5.6-2.6,8c-1.8,1.9-4.4,3.3-9.2,3.3c-4.6,0-7.3-1.4-9.1-3.3
		c-1.8-1.8-2.6-4.4-2.6-8V59.8h7.8v9.5c0,3.1-0.1,6.8,4,6.8c4,0,3.9-3.9,3.9-6.8v-9.5H102.1z"/>
	<polygon class="st1" points="130,81.7 120.5,71.3 120.5,81.7 112.7,81.7 112.7,59.8 119.4,59.8 129,70.2 129,59.8 136.8,59.8 
		136.8,81.7 	"/>
	<path class="st1" d="M155.4,76.4h1.1c1.6,0,3-0.1,4.1-1.3c0.7-0.8,1.5-1.9,1.5-4.3c0-2-0.6-3.5-1.6-4.5c-1.2-1.2-2.8-1.3-4.3-1.3
		h-0.9V76.4z M147.6,59.8h9.4c3.7,0,6.8,0.7,9.4,3.1c2.1,2,3.4,4.9,3.4,8.1c0,4-2.2,8.1-5.8,9.8c-1.9,0.8-3.6,1-7.5,1h-8.9V59.8z"/>
	<polygon class="st1" points="32.7,116.1 32.7,107.8 24.7,107.8 24.7,116.1 17,116.1 17,94.2 24.7,94.2 24.7,102.1 32.7,102.1 
		32.7,94.2 40.4,94.2 40.4,116.1 	"/>
	<path class="st1" d="M68.6,105.1c0-2.3-1-4.7-3.8-4.7c-2.8,0-3.8,2.4-3.8,4.7c0,2.4,1.1,4.7,3.8,4.7
		C67.4,109.8,68.6,107.5,68.6,105.1 M53.3,105.1c0-5.3,3.6-11.2,11.6-11.2c7.4,0,11.6,5.4,11.6,11.2c0,5.3-3.6,11.2-11.6,11.2
		C57.4,116.4,53.3,111,53.3,105.1"/>
	<path class="st1" d="M112.4,94.2v10.9c0,2.5-0.3,5.6-2.6,8c-1.8,1.9-4.4,3.3-9.2,3.3c-4.6,0-7.3-1.4-9.1-3.3
		c-1.8-1.8-2.6-4.4-2.6-8V94.2h7.8v9.5c0,3.1-0.1,6.8,4,6.8c4,0,4-3.9,4-6.8v-9.5H112.4z"/>
	<path class="st1" d="M125,109c1.5,1,3.2,1.8,5.1,1.8c2,0,2.3-0.9,2.3-1.4c0-0.9-0.9-1.5-3.7-3.1c-3.5-2.1-3.5-4.7-3.5-5.6
		c0-4.2,3.2-6.8,7.5-6.8c2.8,0,5.2,1.2,6.5,2.5v5.8c-1.2-1.1-3.2-2.8-5.1-2.8c-1.3,0-1.8,0.8-1.8,1.4c0,1.1,1.3,1.8,3.3,2.9
		c1.6,0.9,4.6,2.6,4.6,6.1c0,1.1-0.6,6.5-8.4,6.5c-4,0-5.8-1-6.7-1.5V109z"/>
	<polygon class="st1" points="169,116.1 152.9,116.1 152.9,94.2 168.9,94.2 168.9,99.1 160.7,99.1 160.7,102.5 168.4,102.5 
		168.4,107.5 160.7,107.5 160.7,111.2 169,111.2 	"/>
	<path class="st1" d="M38.9,25.3v10.9c0,2.5-0.3,5.6-2.6,8c-1.8,1.9-4.4,3.3-9.2,3.3c-4.6,0-7.2-1.4-9.1-3.3c-1.8-1.8-2.6-4.4-2.6-8
		V25.3h7.8v9.5c0,3.1-0.1,6.8,4,6.8c4,0,4-3.9,4-6.8v-9.5H38.9z"/>
	<path class="st1" d="M49.7,34.9h0.7c1.3,0,3.4,0,3.4-2.5c0-2.5-2-2.5-3.1-2.5h-1V34.9z M41.9,47.3V25.3h10.6c1.4,0,3.9,0,6.1,1.5
		c2.3,1.7,2.7,4.1,2.7,5.5c0,3.9-3.3,6.1-5.5,6.6c-1.3,0.3-2.6,0.4-4,0.4h-2.1v7.9H41.9z"/>
	<polygon class="st1" points="84.3,47.3 80.1,35.3 75.9,47.3 70.2,47.3 62,25.3 70.4,25.3 73.4,34.6 76.6,25.3 83.6,25.3 86.9,34.6 
		89.8,25.3 98.2,25.3 90.2,47.3 	"/>
	<path class="st1" d="M106.8,39.3h4.9l-2.4-6.8L106.8,39.3z M113.4,43.9h-8.1l-1.3,3.4h-8l9.3-21.9h8.1l9.2,21.9h-8L113.4,43.9z"/>
	<path class="st1" d="M132,34.4h0.7c1,0,3.7,0,3.7-2.7c0-2.7-2.3-2.7-3.4-2.7H132V34.4z M124.2,47.3V25.3h10.6
		c3.5,0,5.2,0.5,6.6,1.6c1.8,1.3,2.3,3,2.3,4.8c0,2.4-1.4,4.2-3.5,5c0.6,0.2,1.6,0.6,3.4,4.4l2.9,6.1h-7.7l-1.4-3.2
		c-2.5-5.9-3.4-5.9-5.5-6v9.2H124.2z"/>
	<path class="st1" d="M155.8,42h1.1c1.6,0,3-0.1,4.1-1.3c0.7-0.8,1.5-1.9,1.5-4.3c0-2.1-0.6-3.5-1.6-4.5c-1.2-1.2-2.8-1.3-4.3-1.3
		h-0.9V42z M148,25.3h9.4c3.7,0,6.8,0.7,9.4,3.1c2.1,2,3.4,4.9,3.4,8.1c0,4-2.1,8.1-5.8,9.8c-1.9,0.8-3.6,1-7.5,1H148V25.3z"/>
</g>
</svg>
